<?xml version="1.0" encoding="UTF-8" standalone="no" ?>
<!DOCTYPE svg PUBLIC "-//W3C//DTD SVG 1.1//EN" "http://www.w3.org/Graphics/SVG/1.1/DTD/svg11.dtd">
<svg xmlns="http://www.w3.org/2000/svg" xmlns:xlink="http://www.w3.org/1999/xlink" version="1.1" width="1280" height="1024" viewBox="0 0 1280 1024" xml:space="preserve">
<desc>Created with Fabric.js 5.3.0</desc>
<defs>
</defs>
<g transform="matrix(1 0 0 1 640 512)" id="background-logo"  >
<rect style="stroke: none; stroke-width: 0; stroke-dasharray: none; stroke-linecap: butt; stroke-dashoffset: 0; stroke-linejoin: miter; stroke-miterlimit: 4; fill: rgb(0,0,0); fill-rule: nonzero; opacity: 1;"  paint-order="stroke"  x="-640" y="-512" rx="0" ry="0" width="1280" height="1024" />
</g>
<g transform="matrix(1.9211538461538462 0 0 1.9211538461538462 639.3083846153846 637.3222194178486)" id="text-logo"  >
<g style=""  paint-order="stroke"   >
		<g transform="matrix(1 0 0 1 0 0)" id="text-logo-path-0"  >
<path style="stroke: none; stroke-width: 0.6442435385322315; stroke-dasharray: none; stroke-linecap: butt; stroke-dashoffset: 0; stroke-linejoin: miter; stroke-miterlimit: 4; fill: rgb(255,255,255); fill-rule: nonzero; opacity: 1;"  paint-order="stroke"  transform=" translate(-210.20999999999998, 21)" d="M 24.78 -42 L 14.52 -42 C 7.68 -42 2.1 -36.42 2.1 -29.58 C 2.1 -22.68 7.68 -17.16 14.52 -17.16 L 14.52 -20.58 C 18.66 -20.58 21.18 -18.12 21.18 -13.86 C 21.18 -9.72 18.66 -7.2 14.52 -7.2 L 2.88 -7.2 L 2.88 0 L 14.52 0 C 22.14 0 28.38 -6.24 28.38 -13.86 C 28.38 -21.6 22.14 -27.78 14.52 -27.78 L 14.52 -24.36 C 11.16 -24.36 9.3 -26.16 9.3 -29.58 C 9.3 -32.94 11.16 -34.8 14.52 -34.8 L 24.78 -34.8 Z M 38.82 0 L 62.1 0 L 62.1 -7.2 L 46.02 -7.2 L 46.02 -17.4 L 59.1 -17.4 L 59.1 -24.6 L 46.02 -24.6 L 46.02 -34.8 L 62.1 -34.8 L 62.1 -42 L 38.82 -42 Z M 96.54 -7.2 L 90.54 -7.2 C 82.44 -7.2 76.74 -12.9 76.74 -21.06 C 76.74 -29.1 82.44 -34.8 90.54 -34.8 L 96.54 -34.8 L 96.54 -42 L 90.54 -42 C 78.96 -42 69.54 -32.58 69.54 -21.06 C 69.54 -9.42 78.96 0 90.54 0 L 96.54 0 Z M 126.48 -6.9 C 118.14 -6.9 112.38 -12.72 112.38 -21.06 C 112.38 -29.28 118.14 -35.1 126.48 -35.1 C 134.76 -35.1 140.58 -29.28 140.58 -21.06 C 140.58 -12.72 134.76 -6.9 126.48 -6.9 Z M 105.18 -21.06 C 105.18 -9.24 114.66 0.3 126.48 0.3 C 138.24 0.3 147.78 -9.24 147.78 -21.06 C 147.78 -32.76 138.24 -42.3 126.48 -42.3 C 114.66 -42.3 105.18 -32.76 105.18 -21.06 Z M 165.42 0 L 165.42 -31.86 L 179.1 -11.94 L 179.1 0 L 186.3 0 L 186.3 -42 L 179.1 -42 L 179.1 -24.66 L 167.22 -42 L 158.22 -42 L 158.22 0 Z M 196.74 0 L 206.34 0 C 217.92 0 227.34 -9.42 227.34 -21.06 C 227.34 -32.58 217.92 -42 206.34 -42 L 196.74 -42 Z M 206.34 -7.2 L 203.94 -7.2 L 203.94 -34.8 L 206.34 -34.8 C 214.44 -34.8 220.14 -29.1 220.14 -21.06 C 220.14 -12.9 214.44 -7.2 206.34 -7.2 Z M 255.12 0 L 268.8 0 C 275.58 0 281.1 -5.52 281.1 -12.3 C 281.1 -17.16 278.28 -21.36 274.14 -23.34 C 274.92 -25.02 275.34 -26.88 275.34 -28.8 C 275.34 -36 269.52 -41.88 262.32 -42 L 255.12 -42 Z M 268.8 -7.2 L 262.32 -7.2 L 262.32 -15.6 C 264.66 -15.66 266.88 -16.32 268.8 -17.4 C 272.1 -17.4 273.9 -15.6 273.9 -12.3 C 273.9 -9 272.1 -7.2 268.8 -7.2 Z M 262.32 -22.8 L 262.32 -34.8 C 265.98 -34.74 268.14 -32.52 268.14 -28.8 C 268.14 -25.08 265.98 -22.86 262.32 -22.8 Z M 298.74 0 L 298.74 -17.4 L 306.96 -17.4 L 313.32 0 L 321 0 L 313.98 -19.14 C 317.52 -21.3 319.92 -25.26 319.92 -29.7 C 319.92 -36.48 314.4 -42 307.62 -42 L 291.54 -42 L 291.54 0 Z M 307.62 -24.6 L 298.74 -24.6 L 298.74 -34.8 L 307.62 -34.8 C 310.92 -34.8 312.72 -33 312.72 -29.7 C 312.72 -26.4 310.92 -24.6 307.62 -24.6 Z M 338.88 0 L 341.82 -11.4 L 351.78 -11.4 L 354.72 0 L 362.16 0 L 351.36 -42 L 342.24 -42 L 331.44 0 Z M 343.68 -18.6 L 346.8 -30.84 L 349.92 -18.6 Z M 379.8 0 L 379.8 -42 L 372.6 -42 L 372.6 0 Z M 397.44 0 L 397.44 -31.86 L 411.12 -11.94 L 411.12 0 L 418.32 0 L 418.32 -42 L 411.12 -42 L 411.12 -24.66 L 399.24 -42 L 390.24 -42 L 390.24 0 Z" stroke-linecap="round" />
</g>
</g>
</g>
<g transform="matrix(1.9211538461538462 0 0 1.9211538461538462 638.0500288461539 408.55451299069216)" id="tagline-c8ba2cbe-68da-4718-a4bf-dd748f33abab-logo"  >
<g style=""  paint-order="stroke"   >
		<g transform="matrix(1 0 0 1 0 0)" id="tagline-c8ba2cbe-68da-4718-a4bf-dd748f33abab-logo-path-0"  >
<path style="stroke: none; stroke-width: 0; stroke-dasharray: none; stroke-linecap: butt; stroke-dashoffset: 0; stroke-linejoin: miter; stroke-miterlimit: 4; fill: rgb(255,255,255); fill-rule: nonzero; opacity: 1;"  paint-order="stroke"  transform=" translate(-81.63, 50.75)" d="M 59.88 -101.5 L 35.09 -101.5 C 18.56 -101.5 5.07 -88.02 5.07 -71.48 C 5.07 -54.81 18.56 -41.47 35.09 -41.47 L 35.09 -49.73 C 45.09 -49.73 51.18 -43.79 51.18 -33.49 C 51.18 -23.49 45.09 -17.4 35.09 -17.4 L 6.96 -17.4 L 6.96 0 L 35.09 0 C 53.5 0 68.58 -15.08 68.58 -33.49 C 68.58 -52.2 53.5 -67.13 35.09 -67.13 L 35.09 -58.87 C 26.97 -58.87 22.47 -63.22 22.47 -71.48 C 22.47 -79.6 26.97 -84.1 35.09 -84.1 L 59.88 -84.1 Z M 95.41 0 L 128.47 0 C 144.85 0 158.19 -13.34 158.19 -29.72 C 158.19 -41.47 151.38 -51.62 141.38 -56.4 C 143.26 -60.46 144.27 -64.96 144.27 -69.6 C 144.27 -87 130.21 -101.21 112.81 -101.5 L 95.41 -101.5 Z M 128.47 -17.4 L 112.81 -17.4 L 112.81 -37.7 C 118.46 -37.84 123.83 -39.44 128.47 -42.05 C 136.44 -42.05 140.79 -37.7 140.79 -29.72 C 140.79 -21.75 136.44 -17.4 128.47 -17.4 Z M 112.81 -55.1 L 112.81 -84.1 C 121.65 -83.95 126.88 -78.59 126.88 -69.6 C 126.88 -60.61 121.65 -55.24 112.81 -55.1 Z" stroke-linecap="round" />
</g>
</g>
</g>
</svg>